<svg version="1.1" preserveAspectRatio="none" xmlns="http://www.w3.org/2000/svg" width="500" height="500" viewBox="0 0 500 500"><rect width="100%" height="100%" fill="#87A3B5" fill-opacity="1"/><svg viewBox="1223.9703 842.0555 208.7672 293.2306" width="237.08125141100555" height="333" x="131.4594px" y="83.5px" xmlns="http://www.w3.org/2000/svg" xmlns:xlink="http://www.w3.org/1999/xlink" preserveAspectRatio="none"><defs></defs><style>.companyName {fill:#FFE7D6;fill-opacity:1;}.icon1 {fill:#FFE7D6;fill-opacity:1;}.icon2 {fill:#364C63;fill-opacity:1;}.icon3 {fill:#F3B340;fill-opacity:1;}.icon3-str {stroke:#F3B340;stroke-opacity:1;}</style><g opacity="1" transform="rotate(0 1223.9703 842.0555)">
<svg width="208.7672" height="123.2306" x="1223.9703" y="842.0555" version="1.1" preserveAspectRatio="none" viewBox="28 57.5 144 85">
  <g transform="matrix(1 0 0 1 0 0)"><g><path d="M28 65.5h18v77H28v-77z" data-color="1" class="icon1"></path><path d="M50 57.5h18v85H50v-85z" data-color="1" class="icon1"></path><path d="M72 78.5h18v64H72v-64z" data-color="1" class="icon1"></path><path d="M94 57.5h18v85H94v-85z" data-color="1" class="icon1"></path><path d="M172 132.3l-15.6 9-42.5-73.6 15.6-9 42.5 73.6z" data-color="1" class="icon1"></path></g></g>
</svg>
</g><g opacity="1" transform="rotate(0 1223.9703 1015.2861)">
<svg width="208.7672" height="120" x="1223.9703" y="1015.2861" version="1.1" preserveAspectRatio="none" viewBox="1.8 -28.6 50.8 29.200000000000003">
  <g transform="matrix(1 0 0 1 0 0)" class="companyName"><path id="id-D6z1nYkh4" d="M7.60-27L7.60-0.80L14.80-0.80Q14.80-2.48 15.48-3.92Q16.16-5.36 17.20-6.40L17.20-6.40L17.60-6.40Q17.52-5.88 17.48-5.32L17.48-5.32Q17.44-4.84 17.42-4.28Q17.40-3.72 17.40-3.20L17.40-3.20Q17.40-2.44 17.42-1.86Q17.44-1.28 17.48-0.84L17.48-0.84Q17.52-0.36 17.60 0L17.60 0L1.80 0L1.80-0.40L4.20-1L4.20-27L1.80-27.60L1.80-28L10-28L10-27.60L7.60-27Z M20.20-0.40L22.60-1L22.60-17.40L20.20-18L20.20-18.40L25.80-18.40L25.80-1L28.20-0.40L28.20 0L20.20 0L20.20-0.40ZM26-23L26-23Q26-22.24 25.38-21.62Q24.76-21 24-21L24-21Q23.24-21 22.62-21.62Q22-22.24 22-23L22-23Q22-23.76 22.62-24.38Q23.24-25 24-25L24-25Q24.76-25 25.38-24.38Q26-23.76 26-23Z M37.80 0.60L37.80 0.60Q36.52 0.60 35.60 0.30Q34.68 0 34.12-0.40L34.12-0.40Q33.44-0.84 33-1.40L33-1.40Q32.84-0.80 32.34-0.28Q31.84 0.24 31.40 0.40L31.40 0.40L30.80 0.40Q30.84-0.12 30.88-0.68L30.88-0.68Q30.92-1.16 30.96-1.70Q31.00-2.24 31.00-2.80L31.00-2.80Q31.00-3.40 30.96-4Q30.92-4.60 30.88-5.08L30.88-5.08Q30.84-5.64 30.80-6.20L30.80-6.20L31.40-6.20Q32.16-3.32 33.72-1.76Q35.28-0.20 37.40-0.20L37.40-0.20Q39.08-0.20 40.14-1.24Q41.20-2.28 41.20-3.80L41.20-3.80Q41.20-4.88 40.46-5.68Q39.72-6.48 38.60-7.14Q37.48-7.80 36.20-8.44Q34.92-9.08 33.80-9.88Q32.68-10.68 31.94-11.76Q31.20-12.84 31.20-14.40L31.20-14.40Q31.20-15.28 31.60-16.12Q32-16.96 32.70-17.60Q33.40-18.24 34.40-18.62Q35.40-19 36.60-19L36.60-19Q37.64-19 38.42-18.68Q39.20-18.36 39.76-18L39.76-18Q40.36-17.56 40.80-17L40.80-17Q40.96-17.60 41.46-18.12Q41.96-18.64 42.40-18.80L42.40-18.80L43-18.80Q42.92-18.28 42.88-17.72L42.88-17.72Q42.84-17.24 42.82-16.68Q42.80-16.12 42.80-15.60L42.80-15.60Q42.80-15 42.82-14.38Q42.84-13.76 42.88-13.28L42.88-13.28Q42.92-12.72 43-12.20L43-12.20L42.40-12.20Q41.64-15.08 40.16-16.64Q38.68-18.20 37-18.20L37-18.20Q35.64-18.20 34.72-17.30Q33.80-16.40 33.80-15.20L33.80-15.20Q33.80-14.20 34.56-13.48Q35.32-12.76 36.44-12.14Q37.56-11.52 38.90-10.88Q40.24-10.24 41.36-9.40Q42.48-8.56 43.24-7.40Q44-6.24 44-4.60L44-4.60Q44-3.64 43.54-2.70Q43.08-1.76 42.26-1.02Q41.44-0.28 40.30 0.16Q39.16 0.60 37.80 0.60Z M50.20-28.60L50.20-28.60Q51.24-28.60 51.92-27.88Q52.60-27.16 52.60-25.80L52.60-25.80L50.80-6.40L49.60-6.40L47.80-25.80Q47.80-27.16 48.48-27.88Q49.16-28.60 50.20-28.60ZM48.00-1.80L48.00-1.80Q48.00-2.72 48.64-3.36Q49.28-4 50.20-4L50.20-4Q51.12-4 51.76-3.36Q52.40-2.72 52.40-1.80L52.40-1.80Q52.40-0.88 51.76-0.24Q51.12 0.40 50.20 0.40L50.20 0.40Q49.28 0.40 48.64-0.24Q48.00-0.88 48.00-1.80Z"/></g>
</svg>
</g></svg></svg>